<svg xmlns="http://www.w3.org/2000/svg" viewBox="0 0 1254 64" role="img" aria-label="Works with Claude Code, Codex, Copilot CLI, Gemini CLI, Cursor, pi, OpenCode, ACP">
  <style>
    .chip { fill: #F1F5F9; stroke: #CBD5E1; stroke-width: 2; }
    .label { font: 600 20px/1 -apple-system, "Segoe UI", Helvetica, Arial, sans-serif; fill: #0F172A; }
    .check { fill: none; stroke: #2563EB; stroke-width: 4; stroke-linecap: round; stroke-linejoin: round; }
  </style>
  <g id="works-with">
    <g transform="translate(8 12)">
      <rect class="chip" width="190" height="40" rx="20"/>
      <path class="check" d="M16 20l7 7 13-14"/>
      <text class="label" x="46" y="27">Claude Code</text>
    </g>
    <g transform="translate(212 12)">
      <rect class="chip" width="120" height="40" rx="20"/>
      <path class="check" d="M16 20l7 7 13-14"/>
      <text class="label" x="46" y="27">Codex</text>
    </g>
    <g transform="translate(346 12)">
      <rect class="chip" width="176" height="40" rx="20"/>
      <path class="check" d="M16 20l7 7 13-14"/>
      <text class="label" x="46" y="27">Copilot CLI</text>
    </g>
    <g transform="translate(536 12)">
      <rect class="chip" width="172" height="40" rx="20"/>
      <path class="check" d="M16 20l7 7 13-14"/>
      <text class="label" x="46" y="27">Gemini CLI</text>
    </g>
    <g transform="translate(722 12)">
      <rect class="chip" width="126" height="40" rx="20"/>
      <path class="check" d="M16 20l7 7 13-14"/>
      <text class="label" x="46" y="27">Cursor</text>
    </g>
    <g transform="translate(862 12)">
      <rect class="chip" width="84" height="40" rx="20"/>
      <path class="check" d="M16 20l7 7 13-14"/>
      <text class="label" x="46" y="27">pi</text>
    </g>
    <g transform="translate(960 12)">
      <rect class="chip" width="164" height="40" rx="20"/>
      <path class="check" d="M16 20l7 7 13-14"/>
      <text class="label" x="46" y="27">OpenCode</text>
    </g>
    <g transform="translate(1138 12)">
      <rect class="chip" width="108" height="40" rx="20"/>
      <path class="check" d="M16 20l7 7 13-14"/>
      <text class="label" x="46" y="27">ACP</text>
    </g>
  </g>
</svg>
